<svg xmlns="http://www.w3.org/2000/svg" viewBox="0 0 64 64">
  <rect width="64" height="64" rx="14" fill="#101820"/>
  <path d="M19 22h26v25a8 8 0 0 1-8 8H27a8 8 0 0 1-8-8V22z" fill="#f0a500"/>
  <path d="M45 28h5a8 8 0 0 1 0 16h-5v-6h5a2 2 0 0 0 0-4h-5v-6z" fill="#f0a500"/>
  <path d="M24 30v17M33 30v17M42 30v17" stroke="#ffd166" stroke-width="4" stroke-linecap="round"/>
  <path d="M18 24c-3 0-5-2-5-5s2-5 5-5c1-4 5-7 10-7 3 0 6 1 8 4 2-2 4-3 7-3 5 0 9 4 9 9s-4 8-9 8H18z" fill="#fff4d6"/>
  <path d="M20 20c0 3 2 6 5 6h3c2 0 3-1 3-3 0 2 2 3 4 3h4c4 0 7-3 7-7" fill="none" stroke="#f6d98c" stroke-width="3" stroke-linecap="round"/>
</svg>
